# xmcd CD database file
#
# Track frame offsets:
#	150
#	11740
#	28695
#	42817
#	56030
#	68522
#	83205
#	92575
#	108592
#	123617
#	138465
#	154330
#
# Disc length: 2193 seconds
#
# Revision: 0
# Processed by: cddbd v1.5.2PL0 Copyright (c) Steve Scherf et al.
# Submitted via: CD2WAV32(JP) R3.22
#
DISCID=9f088f0c
DTITLE=ジミー時田とマウンテン・プレイボーイズ - ジミー時田ウエスタン・ムービー・ヒッツ
DYEAR=1993
DGENRE=Country
TTITLE0=テキサスの黄色いバラ
TTITLE1=ジャニー・ギター
TTITLE2=デビー・クロケットの歌
TTITLE3=ハイ・ヌーン
TTITLE4=いとしのクレメンタイン
TTITLE5=遥かなる山の呼び声
TTITLE6=ボタンとリボン
TTITLE7=帰らざる河
TTITLE8=ライフルと愛馬
TTITLE9=遥かなるアラモ
TTITLE10=誇り高き男
TTITLE11=黄色いリボン
EXTD=
EXTT0=
EXTT1=
EXTT2=
EXTT3=
EXTT4=
EXTT5=
EXTT6=
EXTT7=
EXTT8=
EXTT9=
EXTT10=
EXTT11=
PLAYORDER=
